<?xml version="1.0" standalone="no"?>
<!DOCTYPE svg PUBLIC "-//W3C//DTD SVG 20010904//EN"
 "http://www.w3.org/TR/2001/REC-SVG-20010904/DTD/svg10.dtd">
<svg version="1.0" xmlns="http://www.w3.org/2000/svg"
 width="460.000000pt" height="339.000000pt" viewBox="0 0 460.000000 339.000000"
 preserveAspectRatio="xMidYMid meet">

<g transform="translate(0.000000,339.000000) scale(0.100000,-0.100000)"
fill="#000000" stroke="none">
<path d="M1655 3302 c-67 -32 -141 -105 -176 -173 -17 -34 -109 -274 -109
-285 0 -2 -179 -4 -398 -6 l-398 -3 -80 -39 c-105 -52 -178 -125 -230 -230
l-39 -80 -3 -1020 c-2 -737 0 -1040 8 -1088 20 -118 117 -247 229 -306 125
-66 -11 -62 1880 -62 1076 0 1732 4 1758 10 115 27 245 123 302 223 64 114 62
57 59 1208 l-3 1044 -37 75 c-48 99 -129 177 -235 228 l-78 37 -395 3 -396 3
-34 97 c-76 219 -133 307 -235 360 l-50 27 -640 3 -640 2 -60 -28z m960 -732
c301 -67 579 -242 885 -556 144 -148 256 -278 376 -437 89 -118 92 -138 37
-218 -184 -270 -508 -609 -741 -776 -491 -352 -999 -386 -1502 -102 -289 164
-606 469 -881 849 -72 99 -73 131 -9 215 185 246 448 534 613 672 163 135 323
232 502 303 67 26 142 45 295 74 14 2 93 3 175 2 111 -3 176 -9 250 -26z"/>
<path d="M2150 2211 c-197 -56 -339 -147 -445 -286 -114 -151 -158 -281 -158
-475 0 -149 21 -240 83 -359 215 -414 727 -559 1125 -320 195 117 337 328 371
551 59 392 -156 739 -541 871 -81 28 -104 31 -230 34 -113 2 -152 -1 -205 -16z
m295 -367 c158 -41 275 -170 306 -338 31 -169 -84 -371 -248 -438 -81 -32
-242 -33 -324 0 -80 32 -167 114 -210 198 -33 66 -34 72 -34 184 0 115 0 115
39 188 94 175 279 257 471 206z"/>
</g>
</svg>
